<svg xmlns:dc="http://purl.org/dc/elements/1.1/" xmlns:cc="http://creativecommons.org/ns#" xmlns:rdf="http://www.w3.org/1999/02/22-rdf-syntax-ns#" xmlns:svg="http://www.w3.org/2000/svg" xmlns="http://www.w3.org/2000/svg" xmlns:sodipodi="http://sodipodi.sourceforge.net/DTD/sodipodi-0.dtd" xmlns:inkscape="http://www.inkscape.org/namespaces/inkscape" id="svg2" xml:space="preserve" width="777.16168" height="225.40164" viewBox="0 0 777.16168 225.40164" sodipodi:docname="dreamrobot-logo-einzeilig.svg" inkscape:version="0.92.2 (5c3e80d, 2017-08-06)"><metadata></metadata><defs id="defs6"></defs><g id="g10" inkscape:groupmode="layer" inkscape:label="ink_ext_XXXXXX" transform="matrix(1.3333333,0,0,-1.3333333,-6.4336113,230.0332)"><g id="g12" transform="matrix(0.1,0,0,0.1,44.551431,43.114288)"><path d="m 909.648,428.98 c 113.942,0 170.942,67.11 170.942,201.329 0,114.222 -57,171.332 -170.942,171.332 H 788.629 V 428.98 Z M 686.801,340.621 V 890 H 925 c 171.6,0 257.42,-86.559 257.42,-259.691 0,-193.118 -85.82,-289.688 -257.42,-289.688 H 686.801" style="fill:#231f20;fill-opacity:1;fill-rule:nonzero;stroke:none" id="path14" inkscape:connector-curvature="0"></path><path d="M 1263.09,341.211 V 743.52 h 183.12 c 82.27,0 123.4,-35.981 123.4,-107.93 0,-48.641 -32.03,-88.91 -96.06,-120.86 l 127.62,-174.109 h -96.91 l -122.58,175.508 v 34.101 c 73.24,12.231 109.88,39.93 109.88,83.129 0,29.653 -16.72,44.493 -50.15,44.493 H 1339.14 V 341.211 h -76.05" style="fill:#231f20;fill-opacity:1;fill-rule:nonzero;stroke:none" id="path16" inkscape:connector-curvature="0"></path><path d="m 1915,743.52 v -64.258 h -190.43 v -101.41 h 180.86 V 511.051 H 1723.71 V 405.43 h 195.24 V 340.621 H 1650.47 V 743.52 H 1915" style="fill:#231f20;fill-opacity:1;fill-rule:nonzero;stroke:none" id="path18" inkscape:connector-curvature="0"></path><path d="m 1964.02,340.621 171.02,402.899 h 80.27 L 2390,340.621 h -80.27 l -50.71,109.848 h -129.06 l 25.67,64.84 h 83.67 l -65.94,151.293 -132.7,-325.981 h -76.64" style="fill:#231f20;fill-opacity:1;fill-rule:nonzero;stroke:none" id="path20" inkscape:connector-curvature="0"></path><path d="M 2439.34,340.621 V 743.52 h 77.46 l 136.64,-305.711 133.83,305.711 h 74.64 V 340.621 h -69.02 V 621.25 l -109.3,-280.629 h -63.67 L 2508.36,621.25 V 340.621 h -69.02" style="fill:#231f20;fill-opacity:1;fill-rule:nonzero;stroke:none" id="path22" inkscape:connector-curvature="0"></path><path d="M 2961.8,341.41 V 890 h 249.72 c 112.19,0 168.28,-49.059 168.28,-147.148 0,-66.332 -43.67,-121.25 -131.01,-164.801 l 174.06,-237.43 h -132.19 l -167.11,239.34 v 46.488 c 99.89,16.641 149.81,54.41 149.81,113.352 0,40.429 -22.77,60.711 -68.36,60.711 H 3065.55 V 341.41 H 2961.8" style="fill:#95c11f;fill-opacity:1;fill-rule:nonzero;stroke:none" id="path24" inkscape:connector-curvature="0"></path><path d="m 3662.85,402.621 c 81.17,0 121.72,46.828 121.72,140.578 0,92.192 -40.55,138.321 -121.72,138.321 -83.2,0 -124.76,-46.129 -124.76,-138.321 0,-93.75 41.56,-140.578 124.76,-140.578 z M 3460.63,541.48 c 0,136.571 67.42,204.848 202.22,204.848 132.81,0 199.22,-68.277 199.22,-204.848 0,-135.781 -66.41,-203.671 -199.22,-203.671 -128.83,0 -196.25,67.89 -202.22,203.671" style="fill:#95c11f;fill-opacity:1;fill-rule:nonzero;stroke:none" id="path26" inkscape:connector-curvature="0"></path><path d="m 4112.27,405.43 c 33.04,0 49.57,16.91 49.57,50.699 0,41.883 -24.69,62.851 -74.11,62.851 h -22.53 v 48.168 c 61.99,10.313 92.96,36.25 92.96,77.731 0,22.543 -13.9,33.832 -41.68,33.832 H 4007.15 V 405.43 Z M 3932.5,340.621 V 743.52 h 188.79 c 76.6,0 114.92,-31.29 114.92,-93.829 0,-45.82 -24.96,-78.601 -74.92,-98.32 53.32,-9.961 80,-40.473 80,-91.57 0,-79.449 -41.99,-119.18 -125.94,-119.18 H 3932.5" style="fill:#95c11f;fill-opacity:1;fill-rule:nonzero;stroke:none" id="path28" inkscape:connector-curvature="0"></path><path d="m 4489.77,402.621 c 81.13,0 121.71,46.828 121.71,140.578 0,92.192 -40.58,138.321 -121.71,138.321 -83.21,0 -124.81,-46.129 -124.81,-138.321 0,-93.75 41.6,-140.578 124.81,-140.578 z M 4287.5,541.48 c 0,136.571 67.38,204.848 202.27,204.848 132.77,0 199.18,-68.277 199.18,-204.848 0,-135.781 -66.41,-203.671 -199.18,-203.671 -128.83,0 -196.29,67.89 -202.27,203.671" style="fill:#95c11f;fill-opacity:1;fill-rule:nonzero;stroke:none" id="path30" inkscape:connector-curvature="0"></path><path d="m 5022.77,743.52 v -64.809 h -115.5 v -338.09 h -74.65 v 338.09 h -115.51 v 64.809 h 305.66" style="fill:#95c11f;fill-opacity:1;fill-rule:nonzero;stroke:none" id="path32" inkscape:connector-curvature="0"></path><path d="m 235,883.551 h 102.969 l 192.89,-266.91 -192.89,-266.84 h -101.52 l 192.891,266.84 z m -235,0 H 101.52 L 294.449,616.641 101.52,349.801 H 0 L 192.891,616.641 0,883.551" style="fill:#95c11f;fill-opacity:1;fill-rule:nonzero;stroke:none" id="path34" inkscape:connector-curvature="0"></path><path d="m 1963.44,89.5703 c 0,25.8987 5.51,46.7577 16.52,62.6207 11.09,15.86 26.6,23.789 46.52,23.789 9.42,0 17.74,-1.718 25,-5.199 7.31,-3.48 13.56,-8.511 18.72,-15.16 v 88.438 h 29.29 V 12.1094 h -23.94 l -3.4,19.8008 c -5.27,-7.5391 -11.72,-13.2383 -19.34,-17.1094 -7.65,-3.8594 -16.52,-5.82033 -26.64,-5.82033 -19.61,0 -34.96,7.10933 -46.09,21.28903 -11.1,14.2618 -16.64,33.0118 -16.64,56.211 z m 29.29,-3.0898 c 0,-16.2813 3.32,-29.2891 9.97,-39.1407 6.64,-9.6796 16.95,-14.5703 30.93,-14.5703 8.71,0 16.06,2 22,5.9805 5.93,3.9492 10.82,9.4883 14.57,16.6406 v 75.0784 c -3.75,6.64 -8.68,11.91 -14.73,15.781 -5.94,3.949 -13.13,5.941 -21.56,5.941 -14.07,0 -24.46,-5.781 -31.21,-17.39 -6.65,-11.602 -9.97,-26.68 -9.97,-45.2307 z" style="fill:#a7a5a6;fill-opacity:1;fill-rule:nonzero;stroke:none" id="path36" inkscape:connector-curvature="0"></path><path d="m 2182.66,12.1094 h -29.3 V 173.012 h 29.3 z m 0,202.0706 h -29.3 v 29.879 h 29.3 z" style="fill:#a7a5a6;fill-opacity:1;fill-rule:nonzero;stroke:none" id="path38" inkscape:connector-curvature="0"></path><path d="m 2302.23,8.98047 c -22.43,0 -40.28,7.46873 -53.56,22.30863 -13.16,14.9609 -19.76,34.3711 -19.76,58.1601 v 6.5313 c 0,22.8905 6.79,41.9495 20.39,57.1095 13.67,15.269 29.8,22.89 48.47,22.89 21.68,0 38.09,-6.531 49.18,-19.609 11.14,-13.09 16.68,-30.551 16.68,-52.351 V 85.6992 h -104.37 l -0.47,-0.7383 c 0.31,-15.4296 4.22,-28.1601 11.76,-38.1992 7.54,-9.9219 18.08,-14.8515 31.68,-14.8515 9.88,0 18.59,1.3711 26.01,4.1406 7.54,2.8984 14.03,6.8008 19.46,11.7578 l 11.48,-19.0195 c -5.78,-5.668 -13.36,-10.3907 -22.77,-14.1407 -9.42,-3.75 -20.82,-5.66793 -34.18,-5.66793 z M 2297.77,152.93 c -9.84,0 -18.2,-4.18 -25.15,-12.5 -6.92,-8.2 -11.21,-18.59 -12.78,-31.059 l 0.28,-0.742 h 74.22 v 3.871 c 0,11.48 -3.09,21.09 -9.22,28.828 -6.14,7.731 -15.28,11.602 -27.35,11.602 z" style="fill:#a7a5a6;fill-opacity:1;fill-rule:nonzero;stroke:none" id="path40" inkscape:connector-curvature="0"></path><path d="m 2554.45,8.98047 c -22.42,0 -40.23,7.46873 -53.51,22.30863 -13.21,14.9609 -19.81,34.3711 -19.81,58.1601 v 6.5313 c 0,22.8905 6.8,41.9495 20.39,57.1095 13.68,15.269 29.85,22.89 48.48,22.89 21.72,0 38.09,-6.531 49.22,-19.609 11.09,-13.09 16.64,-30.551 16.64,-52.351 V 85.6992 h -104.38 l -0.43,-0.7383 c 0.28,-15.4296 4.18,-28.1601 11.72,-38.1992 7.54,-9.9219 18.09,-14.8515 31.68,-14.8515 9.93,0 18.6,1.3711 26.02,4.1406 7.54,2.8984 14.02,6.8008 19.49,11.7578 l 11.45,-19.0195 c -5.75,-5.668 -13.32,-10.3907 -22.78,-14.1407 -9.41,-3.75 -20.78,-5.66793 -34.18,-5.66793 z M 2550,152.93 c -9.8,0 -18.2,-4.18 -25.16,-12.5 -6.91,-8.2 -11.17,-18.59 -12.77,-31.059 l 0.31,-0.742 h 74.18 v 3.871 c 0,11.48 -3.04,21.09 -9.22,28.828 -6.13,7.731 -15.27,11.602 -27.34,11.602 z" style="fill:#a7a5a6;fill-opacity:1;fill-rule:nonzero;stroke:none" id="path42" inkscape:connector-curvature="0"></path><path d="m 2805.35,31.9102 c 9.73,0 18.24,2.9687 25.59,8.9101 7.42,6.0508 11.13,13.4414 11.13,22.1485 h 26.33 l 0.31,-0.8985 c 0.47,-13.8711 -5.7,-26.2109 -18.59,-37.0312 -12.82,-10.6993 -27.74,-16.05863 -44.77,-16.05863 -23.4,0 -41.29,7.66013 -53.67,22.92973 -12.38,15.2382 -18.59,34.4179 -18.59,57.539 v 6.211 c 0,22.9298 6.21,41.9998 18.59,57.2698 12.5,15.351 30.39,23.05 53.67,23.05 18.83,0 34.18,-5.55 46.1,-16.64 11.99,-11.141 17.77,-24.731 17.38,-40.899 l -0.28,-0.902 h -26.48 c 0,9.801 -3.48,18.121 -10.39,25 -6.95,6.91 -15.74,10.391 -26.33,10.391 -15.35,0 -26.37,-5.551 -33.01,-16.641 -6.56,-11.019 -9.8,-24.527 -9.8,-40.6288 v -6.211 c 0,-16.4804 3.24,-30.1875 9.8,-41.2109 6.53,-10.8985 17.54,-16.3672 33.01,-16.3672 z" style="fill:#a7a5a6;fill-opacity:1;fill-rule:nonzero;stroke:none" id="path44" inkscape:connector-curvature="0"></path><path d="m 2902.62,94.0586 c 0,23.7934 6.44,43.3634 19.33,58.7114 12.89,15.468 30.39,23.21 52.5,23.21 22.31,0 39.89,-7.699 52.78,-23.05 12.97,-15.352 19.49,-35 19.49,-58.8714 v -3.2773 c 0,-23.9805 -6.45,-43.6329 -19.34,-58.8711 -12.89,-15.2696 -30.43,-22.92973 -52.65,-22.92973 -22.19,0 -39.81,7.66013 -52.78,22.92973 -12.89,15.3593 -19.33,34.9609 -19.33,58.8711 z m 29.29,-3.2773 c 0,-17.0704 3.56,-31.1329 10.71,-42.2305 7.22,-11.0899 17.93,-16.6406 32.11,-16.6406 13.98,0 24.61,5.5507 31.83,16.6406 7.23,11.0976 10.86,25.1601 10.86,42.2305 v 3.2773 c 0,16.8394 -3.67,30.8634 -11.01,42.0704 -7.23,11.211 -17.89,16.801 -31.96,16.801 -13.98,0 -24.61,-5.59 -31.83,-16.801 -7.15,-11.207 -10.71,-25.231 -10.71,-42.0704 z" style="fill:#a7a5a6;fill-opacity:1;fill-rule:nonzero;stroke:none" id="path46" inkscape:connector-curvature="0"></path><path d="m 3116.48,173.012 2.07,-21.141 c 5.24,7.66 11.88,13.559 19.93,17.699 8.12,4.258 17.54,6.41 28.24,6.41 10.7,0 19.88,-2.46 27.5,-7.429 7.73,-4.961 13.55,-12.422 17.42,-22.301 5.04,9.102 11.72,16.328 20.08,21.68 8.32,5.351 18.01,8.05 29.14,8.05 16.33,0 29.3,-5.671 38.79,-16.96 9.53,-11.211 14.3,-28.079 14.3,-50.7 V 12.1094 h -29.3 v 96.5196 c 0,15.859 -2.74,27.031 -8.2,33.601 -5.43,6.641 -13.56,9.961 -24.38,9.961 -10,0 -18.12,-3.48 -24.37,-10.39 -6.18,-6.961 -9.77,-15.75 -10.86,-26.332 V 12.1094 h -29.46 v 96.5196 c 0,15.043 -2.81,26.062 -8.47,33.012 -5.55,7.031 -13.56,10.55 -24.07,10.55 -8.94,0 -16.29,-1.839 -22.03,-5.511 -5.74,-3.668 -10.15,-8.828 -13.24,-15.469 V 12.1094 h -29.26 V 173.012 Z" style="fill:#a7a5a6;fill-opacity:1;fill-rule:nonzero;stroke:none" id="path48" inkscape:connector-curvature="0"></path><path d="m 3390.66,173.012 2.11,-21.141 c 5.24,7.66 11.88,13.559 19.93,17.699 8.12,4.258 17.53,6.41 28.24,6.41 10.7,0 19.88,-2.46 27.5,-7.429 7.73,-4.961 13.55,-12.422 17.42,-22.301 5.04,9.102 11.72,16.328 20.04,21.68 8.36,5.351 18.05,8.05 29.18,8.05 16.33,0 29.26,-5.671 38.79,-16.96 9.53,-11.211 14.26,-28.079 14.26,-50.7 V 12.1094 h -29.26 v 96.5196 c 0,15.859 -2.74,27.031 -8.21,33.601 -5.43,6.641 -13.55,9.961 -24.37,9.961 -10,0 -18.13,-3.48 -24.38,-10.39 -6.17,-6.961 -9.76,-15.75 -10.86,-26.332 V 12.1094 h -29.45 v 96.5196 c 0,15.043 -2.81,26.062 -8.47,33.012 -5.55,7.031 -13.6,10.55 -24.11,10.55 -8.9,0 -16.25,-1.839 -21.99,-5.511 -5.74,-3.668 -10.15,-8.828 -13.24,-15.469 V 12.1094 h -29.3 V 173.012 Z" style="fill:#a7a5a6;fill-opacity:1;fill-rule:nonzero;stroke:none" id="path50" inkscape:connector-curvature="0"></path><path d="m 3705.47,8.98047 c -22.38,0 -40.24,7.46873 -53.52,22.30863 -13.16,14.9609 -19.76,34.3711 -19.76,58.1601 v 6.5313 c 0,22.8905 6.79,41.9495 20.35,57.1095 13.71,15.269 29.84,22.89 48.48,22.89 21.71,0 38.12,-6.531 49.21,-19.609 11.1,-13.09 16.68,-30.551 16.68,-52.351 V 85.6992 H 3662.5 l -0.43,-0.7383 c 0.31,-15.4296 4.22,-28.1601 11.76,-38.1992 7.54,-9.9219 18.08,-14.8515 31.68,-14.8515 9.88,0 18.55,1.3711 26.01,4.1406 7.54,2.8984 14.03,6.8008 19.46,11.7578 l 11.44,-19.0195 c -5.74,-5.668 -13.32,-10.3907 -22.73,-14.1407 -9.42,-3.75 -20.82,-5.66793 -34.18,-5.66793 z M 3701.02,152.93 c -9.81,0 -18.17,-4.18 -25.12,-12.5 -6.95,-8.2 -11.21,-18.59 -12.77,-31.059 l 0.27,-0.742 h 74.22 v 3.871 c 0,11.48 -3.09,21.09 -9.22,28.828 -6.17,7.731 -15.27,11.602 -27.38,11.602 z" style="fill:#a7a5a6;fill-opacity:1;fill-rule:nonzero;stroke:none" id="path52" inkscape:connector-curvature="0"></path><path d="m 3883.79,147.148 -15,0.864 c -7.74,0 -14.3,-1.84 -19.65,-5.473 -5.23,-3.668 -9.3,-8.828 -12.19,-15.469 V 12.1094 h -29.29 V 173.012 h 26.17 l 2.85,-23.524 c 4.53,8.364 10.16,14.852 16.8,19.492 6.72,4.649 14.45,7 23.2,7 2.15,0 4.26,-0.199 6.21,-0.589 1.99,-0.313 3.63,-0.661 4.92,-1.051 z" style="fill:#a7a5a6;fill-opacity:1;fill-rule:nonzero;stroke:none" id="path54" inkscape:connector-curvature="0"></path><path d="m 3982.54,31.9102 c 9.73,0 18.24,2.9687 25.59,8.9101 7.42,6.0508 11.17,13.4414 11.17,22.1485 h 26.29 l 0.31,-0.8985 c 0.51,-13.8711 -5.7,-26.2109 -18.6,-37.0312 -12.77,-10.6993 -27.69,-16.05863 -44.76,-16.05863 -23.36,0 -41.25,7.66013 -53.67,22.92973 -12.39,15.2382 -18.6,34.4179 -18.6,57.539 v 6.211 c 0,22.9298 6.21,41.9998 18.6,57.2698 12.5,15.351 30.39,23.05 53.67,23.05 18.87,0 34.22,-5.55 46.09,-16.64 12,-11.141 17.82,-24.731 17.42,-40.899 l -0.31,-0.902 h -26.44 c 0,9.801 -3.48,18.121 -10.43,25 -6.92,6.91 -15.71,10.391 -26.33,10.391 -15.35,0 -26.37,-5.551 -33.01,-16.641 -6.52,-11.019 -9.8,-24.527 -9.8,-40.6288 v -6.211 c 0,-16.4804 3.28,-30.1875 9.8,-41.2109 6.56,-10.8985 17.58,-16.3672 33.01,-16.3672 z" style="fill:#a7a5a6;fill-opacity:1;fill-rule:nonzero;stroke:none" id="path56" inkscape:connector-curvature="0"></path><path d="m 4153.44,8.98047 c -22.42,0 -40.24,7.46873 -53.56,22.30863 -13.16,14.9609 -19.76,34.3711 -19.76,58.1601 v 6.5313 c 0,22.8905 6.79,41.9495 20.39,57.1095 13.67,15.269 29.84,22.89 48.47,22.89 21.68,0 38.09,-6.531 49.22,-19.609 11.1,-13.09 16.64,-30.551 16.64,-52.351 V 85.6992 H 4110.47 L 4110,84.9609 c 0.31,-15.4296 4.22,-28.1601 11.76,-38.1992 7.54,-9.9219 18.08,-14.8515 31.68,-14.8515 9.92,0 18.59,1.3711 26.01,4.1406 7.54,2.8984 14.03,6.8008 19.5,11.7578 l 11.44,-19.0195 c -5.74,-5.668 -13.36,-10.3907 -22.77,-14.1407 -9.42,-3.75 -20.82,-5.66793 -34.18,-5.66793 z M 4148.98,152.93 c -9.84,0 -18.2,-4.18 -25.15,-12.5 -6.92,-8.2 -11.17,-18.59 -12.78,-31.059 l 0.32,-0.742 h 74.18 v 3.871 c 0,11.48 -3.09,21.09 -9.22,28.828 -6.13,7.731 -15.28,11.602 -27.35,11.602 z" style="fill:#a7a5a6;fill-opacity:1;fill-rule:nonzero;stroke:none" id="path58" inkscape:connector-curvature="0"></path><path d="m 4380.08,70.6992 3.44,-19.4883 h 0.89 l 4.14,19.4883 32.15,102.3128 h 23.48 l 32.27,-102.3128 4.6,-21.7187 h 0.9 l 4.3,21.7187 25.27,102.3128 h 29.14 L 4493.98,12.1094 h -23.63 l -31.09,98.0116 -6.68,27.34 -0.9,-0.121 -6.37,-27.219 -30.66,-98.0116 h -23.63 l -46.68,160.9026 h 29.14 z" style="fill:#a7a5a6;fill-opacity:1;fill-rule:nonzero;stroke:none" id="path60" inkscape:connector-curvature="0"></path><path d="m 4676.33,12.1094 c -1.02,4.8789 -1.8,9.1406 -2.38,12.8125 -0.51,3.75 -0.82,7.5 -0.9,11.289 -5.47,-7.7304 -12.58,-14.2226 -21.41,-19.4921 -8.75,-5.1602 -18.16,-7.73833 -28.28,-7.73833 -16.72,0 -29.53,4.25783 -38.36,12.82033 -8.71,8.5898 -13.09,20.4687 -13.09,35.5 0,15.3984 6.22,27.3906 18.6,36.0195 12.5,8.7107 29.41,13.0897 50.7,13.0897 h 31.84 v 15.891 c 0,9.418 -2.89,16.84 -8.64,22.308 -5.74,5.551 -13.86,8.321 -24.37,8.321 -9.41,0 -17.11,-2.418 -23.05,-7.309 -5.86,-4.723 -8.79,-10.5 -8.79,-17.223 h -27.93 l -0.31,0.903 c -0.58,11.679 4.92,22.379 16.52,32.109 11.68,9.719 26.76,14.57 45.2,14.57 18.24,0 32.89,-4.652 43.98,-13.992 11.14,-9.218 16.68,-22.539 16.68,-40 V 44.5313 c 0,-5.7422 0.28,-11.293 0.9,-16.6407 0.59,-5.3515 1.68,-10.6211 3.24,-15.7812 z m -48.63,21.4101 c 10.58,0 20.15,2.7305 28.71,8.1993 8.51,5.4296 14.06,11.6796 16.64,18.7109 v 26.1719 h -32.85 c -11.8,0 -21.29,-2.9727 -28.4,-8.9024 -7.07,-5.9375 -10.59,-12.9297 -10.59,-20.9804 0,-7.1094 2.23,-12.7696 6.72,-16.9493 4.45,-4.1484 11.05,-6.25 19.77,-6.25 z" style="fill:#a7a5a6;fill-opacity:1;fill-rule:nonzero;stroke:none" id="path62" inkscape:connector-curvature="0"></path><path d="m 4794.1,70.6992 3.44,-19.4883 h 0.86 l 4.18,19.4883 32.11,102.3128 h 23.51 l 32.27,-102.3128 4.61,-21.7187 h 0.9 l 4.29,21.7187 25.28,102.3128 h 29.14 L 4908.01,12.1094 h -23.63 l -31.1,98.0116 -6.68,27.34 -0.9,-0.121 -6.4,-27.219 -30.63,-98.0116 h -23.63 l -46.68,160.9026 h 29.14 z" style="fill:#a7a5a6;fill-opacity:1;fill-rule:nonzero;stroke:none" id="path64" inkscape:connector-curvature="0"></path><path d="m 5023.13,12.1094 h -29.3 V 173.012 h 29.3 z m 0,202.0706 h -29.3 v 29.879 h 29.3 z" style="fill:#a7a5a6;fill-opacity:1;fill-rule:nonzero;stroke:none" id="path66" inkscape:connector-curvature="0"></path><path d="m 2639.41,44.1797 c 0,21.2109 14.26,35.8203 34.65,35.8203 20.04,0 33.91,-14.2617 34.3,-35.8203 0,-20.3906 -13.91,-35.39064 -35.08,-35.39064 -19.61,0 -33.87,15.00004 -33.87,35.39064" style="fill:#95c11f;fill-opacity:1;fill-rule:nonzero;stroke:none" id="path68" inkscape:connector-curvature="0"></path><path d="m 4244.26,44.3711 c 0,21.1797 14.26,35.8281 34.65,35.8281 20.04,0 33.9,-14.2578 34.29,-35.8281 0,-20.4219 -13.86,-35.42188 -35.07,-35.42188 -19.61,0 -33.87,14.99998 -33.87,35.42188" style="fill:#95c11f;fill-opacity:1;fill-rule:nonzero;stroke:none" id="path70" inkscape:connector-curvature="0"></path></g></g></svg>