<svg xmlns="http://www.w3.org/2000/svg" xmlns:xlink="http://www.w3.org/1999/xlink" width="140" height="140" viewBox="0 0 140 140">
  <defs>
    <path id="5m-03-a" d="M0,10.001 C0,15.514 4.486,20 9.999,20 C15.514,20 19.999,15.514 19.999,10.001 C19.999,4.486 15.514,0.001 9.999,0.001 C4.486,0.001 0,4.486 0,10.001 Z M3.437,10.001 C3.437,6.381 6.382,3.437 9.999,3.437 C13.619,3.437 16.564,6.381 16.564,10.001 C16.564,13.618 13.619,16.563 9.999,16.563 C6.38,16.563 3.437,13.618 3.437,10.001 Z"/>
    <path id="5m-03-c" d="M1.415,0.001 C0.641,0.001 0.01,0.797 0.002,1.79 L0,1.932 C0,2.808 0.067,3.683 0.194,4.536 C0.326,5.401 0.919,6 1.583,6 C1.673,6 1.763,5.99 1.855,5.967 C2.622,5.776 3.123,4.823 2.974,3.843 C2.88,3.219 2.831,2.575 2.831,1.932 L2.831,1.832 C2.84,0.833 2.214,0.012 1.432,0.001 L1.415,0.001 Z"/>
  </defs>
  <g fill="none" fill-rule="evenodd" transform="translate(11 7)">
    <polygon fill="#FFF" points="16 125.25 51 125.25 51 32.583 16 32.583"/>
    <path fill="#000" d="M36.3415,102.9751 C36.0155,103.1391 35.7415,103.4001 35.5715,103.7281 C33.0245,106.1981 30.8805,108.0291 29.6635,109.0301 C28.4615,108.0381 26.3505,106.2321 23.8355,103.7941 C23.6545,103.4051 23.3385,103.0991 22.9505,102.9281 C14.9595,95.0001 3.6925,81.3031 3.6925,67.0971 C3.6925,52.9721 15.3425,41.4811 29.6635,41.4811 C43.9845,41.4811 55.6345,52.9721 55.6345,67.0971 C55.6345,72.8921 53.7295,79.1261 50.0165,85.6391 C46.6915,90.5481 39.0875,100.2581 36.3415,102.9751 M46.9875,111.5871 C46.9875,112.8261 45.2665,114.2881 42.4955,115.4011 C39.0965,116.7671 34.5385,117.5201 29.6625,117.5201 C19.0865,117.5201 12.3375,114.0051 12.3375,111.5871 C12.3375,109.9251 15.5385,107.6221 21.4915,106.4251 C25.4445,110.2381 28.3965,112.5061 28.5835,112.6501 C28.9025,112.8921 29.2825,113.0131 29.6635,113.0131 C30.0445,113.0131 30.4255,112.8921 30.7435,112.6501 C30.9595,112.4841 33.9075,110.2161 37.8375,106.4271 C43.7885,107.6231 46.9875,109.9281 46.9875,111.5871 M53.3925,86.8141 C57.2075,79.9611 59.1635,73.3361 59.1635,67.0971 C59.1635,51.0521 45.9295,37.9991 29.6635,37.9991 C13.3975,37.9991 0.1635,51.0521 0.1635,67.0971 C0.1635,77.0581 4.9675,87.7681 14.4435,98.9291 C15.8515,100.5881 17.2535,102.1241 18.6005,103.5271 C12.4825,105.1731 8.8095,108.1331 8.8095,111.5861 C8.8095,117.7011 19.5535,120.9991 29.6625,120.9991 C39.7725,120.9991 50.5165,117.7011 50.5165,111.5861 C50.5165,108.1361 46.8445,105.1761 40.7305,103.5281 C42.8315,101.3411 48.5995,93.8441 51.8435,89.2001 C52.0365,89.0641 52.2045,88.8891 52.3335,88.6751 C52.5765,88.2731 52.7875,87.8741 53.0175,87.4731 C53.0785,87.3801 53.1505,87.2751 53.2065,87.1871 C53.2835,87.0671 53.3425,86.9411 53.3925,86.8141"/>
    <path stroke="#000" stroke-width=".5" d="M36.3415,102.9751 C36.0155,103.1391 35.7415,103.4001 35.5715,103.7281 C33.0245,106.1981 30.8805,108.0291 29.6635,109.0301 C28.4615,108.0381 26.3505,106.2321 23.8355,103.7941 C23.6545,103.4051 23.3385,103.0991 22.9505,102.9281 C14.9595,95.0001 3.6925,81.3031 3.6925,67.0971 C3.6925,52.9721 15.3425,41.4811 29.6635,41.4811 C43.9845,41.4811 55.6345,52.9721 55.6345,67.0971 C55.6345,72.8921 53.7295,79.1261 50.0165,85.6391 C46.6915,90.5481 39.0875,100.2581 36.3415,102.9751 Z M46.9875,111.5871 C46.9875,112.8261 45.2665,114.2881 42.4955,115.4011 C39.0965,116.7671 34.5385,117.5201 29.6625,117.5201 C19.0865,117.5201 12.3375,114.0051 12.3375,111.5871 C12.3375,109.9251 15.5385,107.6221 21.4915,106.4251 C25.4445,110.2381 28.3965,112.5061 28.5835,112.6501 C28.9025,112.8921 29.2825,113.0131 29.6635,113.0131 C30.0445,113.0131 30.4255,112.8921 30.7435,112.6501 C30.9595,112.4841 33.9075,110.2161 37.8375,106.4271 C43.7885,107.6231 46.9875,109.9281 46.9875,111.5871 Z M53.3925,86.8141 C57.2075,79.9611 59.1635,73.3361 59.1635,67.0971 C59.1635,51.0521 45.9295,37.9991 29.6635,37.9991 C13.3975,37.9991 0.1635,51.0521 0.1635,67.0971 C0.1635,77.0581 4.9675,87.7681 14.4435,98.9291 C15.8515,100.5881 17.2535,102.1241 18.6005,103.5271 C12.4825,105.1731 8.8095,108.1331 8.8095,111.5861 C8.8095,117.7011 19.5535,120.9991 29.6625,120.9991 C39.7725,120.9991 50.5165,117.7011 50.5165,111.5861 C50.5165,108.1361 46.8445,105.1761 40.7305,103.5281 C42.8315,101.3411 48.5995,93.8441 51.8435,89.2001 C52.0365,89.0641 52.2045,88.8891 52.3335,88.6751 C52.5765,88.2731 52.7875,87.8741 53.0175,87.4731 C53.0785,87.3801 53.1505,87.2751 53.2065,87.1871 C53.2835,87.0671 53.3425,86.9411 53.3925,86.8141 Z"/>
    <path fill="#000" d="M93.4997,63.1938 C84.9937,63.1938 80.6077,60.3918 80.6077,59.1968 C80.6077,58.5028 82.4547,56.8218 86.8957,55.8628 C89.9197,58.7648 92.1547,60.4818 92.2487,60.5538 C92.9617,61.1008 94.0397,61.1008 94.7507,60.5548 C94.7727,60.5388 97.0067,58.8368 100.1037,55.8628 C102.0207,56.2778 103.7067,56.8868 104.8607,57.5818 C105.9907,58.2628 106.3917,58.8778 106.3917,59.1968 C106.3917,60.3918 102.0057,63.1938 93.4997,63.1938 M73.5817,24.2538 C73.8307,13.9208 80.0827,4.9208 93.4997,4.8058 C104.3397,4.7148 113.1577,13.5338 113.1577,24.2598 C113.1577,38.5678 98.3267,52.2538 93.4997,56.3248 C92.5497,55.5238 91.1297,54.2798 89.4917,52.6918 C89.2987,52.3328 89.0057,52.0438 88.6387,51.8518 C76.4097,39.6558 73.9977,32.7538 73.5817,24.2538 M103.3857,52.5338 C104.2677,51.5888 105.1177,50.6308 105.9197,49.6828 C113.4377,40.7958 117.2497,32.2418 117.2497,24.2598 C117.2497,11.2978 106.5947,0.9008 93.4997,0.7508 C79.2497,0.5868 69.3967,11.2558 69.6657,24.2538 C69.8317,32.3368 73.5627,40.7958 81.0807,49.6828 C81.8807,50.6298 82.7307,51.5868 83.6127,52.5318 C79.0957,53.9628 76.5157,56.3788 76.5157,59.1968 C76.5157,61.6858 78.5217,63.8668 82.1657,65.3358 C85.2277,66.5708 89.2517,67.2508 93.4997,67.2508 C97.7467,67.2508 101.7717,66.5708 104.8347,65.3358 C108.4777,63.8668 110.4837,61.6858 110.4837,59.1968 C110.4827,56.3818 107.9027,53.9658 103.3857,52.5338"/>
    <g transform="translate(84 15)">
      <mask id="5m-03-b" fill="#fff">
        <use xlink:href="#5m-03-a"/>
      </mask>
      <polygon fill="#000" points="-5 25 25 25 25 -5 -5 -5" mask="url(#5m-03-b)"/>
    </g>
    <g transform="translate(56 67)">
      <mask id="5m-03-d" fill="#fff">
        <use xlink:href="#5m-03-c"/>
      </mask>
      <polygon fill="#000" points="-5 11 8 11 8 -5 -5 -5" mask="url(#5m-03-d)"/>
    </g>
    <g fill="#000" fill-rule="nonzero" transform="translate(15 54)">
      <path d="M26.4138 14.0034C26.4138 7.5139695 21.1532305 2.2534 14.6638 2.2534 8.1743695 2.2534 2.9138 7.5139695 2.9138 14.0034 2.9138 20.4928305 8.1743695 25.7534 14.6638 25.7534 21.1532305 25.7534 26.4138 20.4928305 26.4138 14.0034zM30.4138 14.0034C30.4138 22.7019695 23.3623695 29.7534 14.6638 29.7534 5.9652305 29.7534-1.0862 22.7019695-1.0862 14.0034-1.0862 5.3048305 5.9652305-1.7466 14.6638-1.7466 23.3623695-1.7466 30.4138 5.3048305 30.4138 14.0034zM61.5939909 3.19834473C62.6977073 3.24174931 63.5572598 4.17167457 63.5138553 5.27539094 63.4704507 6.37910731 62.5405254 7.23865985 61.4368091 7.19525527 61.4353443 7.19514607 61.4353443 7.19514607 61.3616345 7.19332183 61.2692059 7.1914065 61.157056 7.19037886 61.0267091 7.19079005 59.9221451 7.19427448 59.0238944 6.30167312 59.02041 5.19710912 59.0169255 4.09254511 59.9095269 3.19429438 61.0140909 3.19080995 61.1767929 3.1902967 61.3207425 3.19161572 61.444506 3.19418039 61.5566913 3.19692948 61.5566913 3.19692948 61.5939909 3.19834473zM53.5328364 4.23094298C54.5926471 3.91969538 55.7041094 4.52652567 56.015357 5.58633636 56.3266046 6.64614706 55.7197743 7.75760941 54.6599636 8.06885702 54.3698802 8.15404939 54.0872145 8.24537724 53.8125974 8.34292314 52.7717414 8.71264248 51.628244 8.16857864 51.2585247 7.12772256 50.8888054 6.08686647 51.4328692 4.94336916 52.4737253 4.57364982 52.8195344 4.45081602 53.1727452 4.33669536 53.5328364 4.23094298zM45.8633937 9.55452672C46.4287563 8.60561215 47.6563206 8.29468188 48.6052351 8.86004453 49.5541497 9.42540717 49.86508 10.6529714 49.2997173 11.601886 49.1754996 11.8103752 49.0655386 12.0270437 48.9699425 12.2525723 48.5388694 13.269553 47.3649898 13.7445249 46.3480091 13.3134517 45.3310284 12.8823785 44.8560566 11.7084989 45.2871297 10.6915183 45.4540034 10.2978328 45.6463976 9.9187368 45.8633937 9.55452672zM45.0526916 18.9994964C44.7342697 17.9418191 45.3335546 16.8262703 46.3912319 16.5078484 47.4489092 16.1894265 48.5644581 16.7887114 48.8828799 17.8463887 48.9585554 18.0977541 49.0450559 18.33223 49.1422274 18.5510109 49.5905875 19.5604895 49.1357111 20.7423012 48.1262325 21.1906613 47.1167539 21.6390214 45.9349422 21.184145 45.4865821 20.1746664 45.3204443 19.8006086 45.1759749 19.4089968 45.0526916 18.9994964zM52.2049296 25.411272C51.1382065 25.1246094 50.5058424 24.0274734 50.792505 22.9607503 51.0791676 21.8940271 52.1763035 21.261663 53.2430267 21.5483256 53.5155388 21.6215583 53.8027128 21.6894722 54.1052428 21.7522475 55.186774 21.9766666 55.8816007 23.0353485 55.6571817 24.1168798 55.4327626 25.1984111 54.3740807 25.8932378 53.2925494 25.6688187 52.9160479 25.5906941 52.553845 25.5050367 52.2049296 25.411272zM60.6969033 26.3678251C59.5927686 26.3368372 58.7228111 25.4166384 58.753799 24.3125037 58.7847869 23.208369 59.7049856 22.3384116 60.8091204 22.3693994 61.1251937 22.3782701 61.4527388 22.3859968 61.7941453 22.3926911 62.8985026 22.4143451 63.7762069 23.3271576 63.7545529 24.4315148 63.7328988 25.5358721 62.8200863 26.4135764 61.7157291 26.3919223 61.3633626 26.3850132 61.0245888 26.3770217 60.6969033 26.3678251zM68.768575 26.4386723C67.6640119 26.43492 66.7716284 25.5364528 66.7753807 24.4318897 66.779133 23.3273266 67.6776002 22.4349431 68.7821633 22.4386954 69.0724217 22.4397157 69.0724217 22.4397157 69.3652258 22.4409068 69.5762849 22.4417635 69.5762849 22.4417635 69.7855065 22.4424812 70.8900701 22.4461166 71.7825487 23.3444892 71.7789133 24.4490528 71.775278 25.5536163 70.8769053 26.4460949 69.7723418 26.4424595 69.5613684 26.4417358 69.5613684 26.4417358 69.3483116 26.440871 69.0573348 26.4396873 69.0573348 26.4396873 68.768575 26.4386723zM76.7614897 26.479309C75.6570566 26.4619505 74.7758085 25.5525587 74.793167 24.4481256 74.8105255 23.3436925 75.7199172 22.4624444 76.8243503 22.4798029 77.1700967 22.4852371 77.5076757 22.491486 77.8388426 22.4986268 78.9431554 22.5224386 79.8190745 23.4369644 79.7952626 24.5412772 79.7714508 25.64559 78.8569251 26.5215091 77.7526123 26.4976972 77.4294136 26.4907282 77.0996094 26.4846232 76.7614897 26.479309zM84.6129421 26.8616763C83.5133615 26.7568135 82.7069834 25.7804192 82.8118462 24.6808385 82.916709 23.5812579 83.8931033 22.7748798 84.9926839 22.8797426 85.3409138 22.9129519 85.683929 22.948407 86.0219979 22.9861957 87.1197309 23.1088983 87.9101493 24.0982568 87.7874468 25.1959899 87.6647442 26.2937229 86.6753857 27.0841413 85.5776526 26.9614387 85.2613714 26.9260854 84.9398787 26.892855 84.6129421 26.8616763zM92.1208569 28.2166594C91.0630974 27.8985106 90.4635245 26.7831166 90.7816732 25.7253571 91.099822 24.6675976 92.2152161 24.0680247 93.2729755 24.3861735 93.6231348 24.491493 93.9660187 24.6018623 94.3016879 24.7174365 95.3460845 25.0770328 95.9012249 26.2151939 95.5416286 27.2595906 95.1820323 28.3039872 94.0438712 28.8591275 92.9994746 28.4995313 92.7141214 28.4012813 92.4212578 28.3070128 92.1208569 28.2166594zM98.3111315 31.5587342C97.5209593 30.7869171 97.5060795 29.5206746 98.2778966 28.7305023 99.0497137 27.9403301 100.315956 27.9254504 101.106128 28.6972675 101.388096 28.9726851 101.656566 29.2584885 101.9113 29.5547944 102.631377 30.3923875 102.536112 31.655129 101.698519 32.3752065 100.860926 33.095284 99.5981842 33.0000187 98.8781068 32.1624256 98.6995022 31.954673 98.5105385 31.7535092 98.3111315 31.5587342zM101.128504 37.4806294C100.987178 36.3851384 101.760681 35.3824997 102.856172 35.2411731 103.951663 35.0998466 104.954302 35.8733498 105.095628 36.9688408 105.142896 37.3352411 105.179228 37.7085818 105.20461 38.0889072 105.278162 39.1910252 104.444344 40.1440937 103.342226 40.2176455 102.240108 40.2911972 101.28704 39.4573795 101.213488 38.3552616 101.193541 38.0563736 101.165173 37.7648688 101.128504 37.4806294zM99.8442785 43.7576474C100.480047 42.8543908 101.727673 42.6375485 102.630929 43.2733166 103.534186 43.9090848 103.751028 45.156711 103.11526 46.0599676 102.890934 46.3786756 102.649823 46.6900958 102.392267 46.9942746 101.678498 47.8372502 100.416508 47.9419931 99.5735322 47.2282243 98.7305565 46.5144555 98.6258137 45.2524649 99.3395824 44.4094892 99.5209464 44.1952946 99.6891644 43.9780231 99.8442785 43.7576474zM94.3234999 48.0938921C95.3116646 47.6003293 96.5128421 48.0012834 97.0064049 48.9894482 97.4999677 49.9776129 97.0990136 51.1787904 96.1108489 51.6723532 95.7959977 51.8296132 95.4736338 51.9835542 95.1438269 52.1342269 94.1391384 52.5932201 92.9525899 52.1508467 92.4935967 51.1461582 92.0346035 50.1414696 92.476977 48.9549212 93.4816655 48.495928 93.7698333 48.3642781 94.0504729 48.2302621 94.3234999 48.0938921zM87.1656943 50.6979138C88.2328387 50.4128235 89.3290416 51.0468037 89.6141319 52.1139482 89.8992221 53.1810926 89.2652419 54.2772955 88.1980975 54.5623857 87.8683583 54.6504764 87.5343679 54.7366753 87.1961696 54.8210006 86.1244127 55.0882288 85.0389508 54.4360296 84.7717225 53.3642727 84.5044942 52.2925158 85.1566935 51.2070538 86.2284504 50.9398255 86.5452051 50.860847 86.8576378 50.7802118 87.1656943 50.6979138zM79.5340799 52.2690907C80.625488 52.0990847 81.6480662 52.8460287 81.8180722 53.9374369 81.9880783 55.028845 81.2411342 56.0514232 80.1497261 56.2214292 79.8154745 56.2734948 79.4785148 56.3242321 79.1388834 56.3736525 78.0458253 56.5327053 77.0307889 55.7755444 76.8717361 54.6824863 76.7126833 53.5894282 77.4698442 52.5743918 78.5629023 52.415339 78.889381 52.3678325 79.2131207 52.3190858 79.5340799 52.2690907zM71.7307896 53.1978956C72.8312031 53.1021675 73.8008675 53.9166259 73.8965957 55.0170394 73.9923238 56.1174529 73.1778654 57.0871173 72.0774518 57.1828455 71.7420189 57.2120257 71.4048589 57.2401724 71.066007 57.2672952 69.964959 57.3554265 69.0009387 56.5342953 68.9128074 55.4332473 68.824676 54.3321994 69.6458072 53.3681791 70.7468552 53.2800477 71.0765805 53.2536555 71.4045712 53.2262743 71.7307896 53.1978956zM63.8003719 53.6833453C64.9041514 53.6415772 65.8328012 54.5025076 65.8745693 55.6062871 65.9163374 56.7100666 65.055407 57.6387164 63.9516275 57.6804845 63.6152561 57.6932131 63.2779807 57.7050822 62.9398408 57.716102 61.8358574 57.7520805 60.9117357 56.8862915 60.8757572 55.7823081 60.8397787 54.6783247 61.7055678 53.754203 62.8095512 53.7182245 63.1407335 53.7074314 63.4710208 53.6958082 63.8003719 53.6833453zM55.8343524 53.8259397C56.9389215 53.826814 57.833643 54.722953 57.8327687 55.8275221 57.8318944 56.9320913 56.9357554 57.8268128 55.8311863 57.8259385 55.4941449 57.8256717 55.157235 57.8246625 54.8205113 57.8229248 53.7159565 57.8172246 52.8251588 56.9171851 52.830859 55.8126303 52.8365592 54.7080755 53.7365987 53.8172779 54.8411535 53.822978 55.1720775 53.8246858 55.5031625 53.8256776 55.8343524 53.8259397zM47.8506787 53.6828984C48.9545827 53.7212376 49.8183936 54.6472085 49.7800544 55.7511125 49.7417153 56.8550164 48.8157443 57.7188273 47.7118403 57.6804882 47.3725074 57.6687029 47.0358794 57.6562957 46.7020774 57.6432966 45.5983445 57.6003144 44.7384362 56.6707181 44.7814184 55.5669852 44.8244006 54.4632523 45.7539968 53.603344 46.8577297 53.6463262 47.1859552 53.6591082 47.5169791 53.6713088 47.8506787 53.6828984zM40.3920983 53.2969982C41.4936312 53.3788459 42.3202494 54.3381654 42.2384018 55.4396983 42.1565541 56.5412312 41.1972346 57.3678494 40.0957017 57.2860018 39.8483766 57.2676247 39.6771313 57.2542341 39.5867033 57.2468306 38.4858173 57.1566996 37.6664384 56.1911894 37.7565694 55.0903033 37.8467004 53.9894173 38.8122106 53.1700384 39.9130967 53.2601694 39.9936687 53.2667659 40.1549234 53.2793753 40.3920983 53.2969982z"/>
    </g>
  </g>
</svg>
