<svg xmlns="http://www.w3.org/2000/svg" width="140" height="140" viewBox="0 0 140 140">
  <g fill="none" fill-rule="evenodd" transform="translate(11 8)">
    <polygon fill="#FFF" points="45.999 124 73.999 124 73.999 0 45.999 0"/>
    <path fill="#000" d="M119,52.8765 L119,32.2655 L98.389,32.2655 L98.389,40.8615 L91.407,40.8615 L84.658,44.7595 L61.423,31.3475 L61.423,22.6115 L69.807,22.6115 L69.808,22.6115 L69.808,2.0005 L49.195,2.0005 L49.195,22.6115 L57.584,22.6115 L57.584,31.3445 L34.343,44.7595 L27.593,40.8615 L20.611,40.8615 L20.611,32.2655 L0,32.2655 L0,52.8765 L20.611,52.8765 L20.611,44.7005 L26.564,44.7005 L32.423,48.0825 L32.423,74.9185 L26.564,78.3015 L20.611,78.3015 L20.611,70.1255 L0,70.1255 L0,90.7375 L20.611,90.7375 L20.611,82.1395 L27.594,82.1395 L34.341,78.2435 L57.584,91.6615 L57.584,100.3895 L49.195,100.3895 L49.195,121.0005 L69.807,121.0005 L69.808,121.0005 L69.808,100.3895 L61.424,100.3895 L61.424,91.6575 L84.66,78.2435 L91.407,82.1395 L98.389,82.1395 L98.389,90.7365 L119,90.7365 L119,70.1255 L98.389,70.1255 L98.389,78.3015 L92.437,78.3015 L86.579,74.9195 L86.578,48.0835 L92.437,44.7005 L98.389,44.7005 L98.389,52.8765 L119,52.8765 Z M53.034,18.7735 L65.968,18.7735 L65.968,5.8395 L53.034,5.8395 L53.034,18.7735 Z M3.838,49.0375 L16.773,49.0375 L16.773,36.1035 L3.838,36.1035 L3.838,49.0375 Z M3.838,86.8975 L16.773,86.8975 L16.773,73.9635 L3.838,73.9635 L3.838,86.8975 Z M53.034,117.1615 L65.968,117.1615 L65.968,104.2275 L53.034,104.2275 L53.034,117.1615 Z M102.228,86.8985 L115.163,86.8985 L115.163,73.9645 L102.228,73.9645 L102.228,86.8985 Z M59.5,59.2845 L38.181,46.9755 L59.501,34.6695 L80.82,46.9755 L59.5,59.2845 Z M36.262,50.2985 L57.584,62.6095 L57.584,87.2305 L36.262,74.9205 L36.262,50.2985 Z M61.423,87.2265 L61.423,62.6055 L82.738,50.2995 L82.74,74.9195 L61.423,87.2265 Z M102.228,49.0385 L115.163,49.0385 L115.163,36.1045 L102.228,36.1045 L102.228,49.0385 Z"/>
  </g>
</svg>
