<svg xmlns="http://www.w3.org/2000/svg" xmlns:xlink="http://www.w3.org/1999/xlink" width="140" height="140" viewBox="0 0 140 140">
  <defs>
    <path id="5m-04-a" d="M72.807,0 L72.807,18.807 L83.064,18.807 L83.064,22.226 L69.298,22.226 C68.417,9.826 58.072,0 45.452,0 C32.83,0 22.485,9.826 21.603,22.226 L9.549,22.226 C4.834,22.226 0.999,26.061 0.999,30.773 L0.999,80.354 C0.999,85.069 4.834,88.904 9.549,88.904 L45.452,88.904 L45.452,92.649 L21.517,97.779 L21.517,106 L86.484,106 L86.484,97.779 L62.548,92.649 L62.548,88.904 L98.453,88.904 C103.166,88.904 106.999,85.069 106.999,80.354 L106.999,30.773 C106.999,26.061 103.166,22.226 98.453,22.226 L96.742,22.226 L96.742,11.969 C96.742,5.368 91.371,0 84.773,0 L72.807,0 Z M83.064,3.421 L84.773,3.421 C89.488,3.421 93.323,7.254 93.323,11.969 L93.323,35.903 C93.323,40.616 89.488,44.451 84.773,44.451 L83.064,44.451 L83.064,32.485 L86.484,32.485 L86.484,15.387 L83.064,15.387 L83.064,3.421 Z M76.227,15.387 L79.645,15.387 L79.645,3.421 L76.227,3.421 L76.227,15.387 Z M24.935,23.937 C24.935,12.622 34.139,3.421 45.452,3.421 C56.765,3.421 65.968,12.622 65.968,23.937 L65.968,30.82 C64.969,30.063 63.819,29.498 62.548,29.238 L62.548,25.646 L60.839,25.646 C55.782,25.646 51.03,23.675 47.454,20.102 L45.454,18.099 L43.447,20.102 C39.872,23.675 35.119,25.646 30.065,25.646 L28.356,25.646 L28.356,29.236 C27.085,29.498 25.935,30.061 24.935,30.818 L24.935,23.937 Z M31.774,39.323 L31.774,29 C36.908,28.612 41.694,26.494 45.452,22.923 C49.205,26.494 53.996,28.614 59.129,29 L59.129,39.323 C59.129,46.864 52.992,53.001 45.452,53.001 C37.909,53.001 31.774,46.864 31.774,39.323 Z M84.773,47.872 C91.371,47.872 96.742,42.503 96.742,35.903 L96.742,25.646 L98.453,25.646 C101.278,25.646 103.58,27.946 103.58,30.773 L103.58,75.227 L82.513,75.227 L79.003,66.457 C76.992,61.423 72.415,57.785 67.057,56.962 L54,54.953 L54,54.107 C57.146,52.281 59.661,49.491 61.123,46.133 C65.702,45.978 69.386,42.229 69.386,37.612 L69.386,25.646 L83.064,25.646 L83.064,29.064 L72.807,29.064 L72.807,47.872 L84.773,47.872 Z M4.419,30.773 C4.419,27.946 6.721,25.646 9.549,25.646 L21.517,25.646 L21.517,37.612 C21.517,42.229 25.201,45.978 29.778,46.133 C31.244,49.491 33.76,52.281 36.904,54.107 L36.904,54.953 L23.844,56.962 C18.488,57.785 13.91,61.423 11.899,66.457 L8.39,75.227 L4.419,75.227 L4.419,30.773 Z M76.227,44.451 L79.645,44.451 L79.645,32.485 L76.227,32.485 L76.227,44.451 Z M62.548,39.323 L62.548,32.799 C64.533,33.507 65.968,35.388 65.968,37.612 C65.968,39.954 64.383,41.912 62.238,42.524 C62.435,41.485 62.548,40.417 62.548,39.323 Z M24.935,37.612 C24.935,35.388 26.37,33.507 28.356,32.799 L28.356,39.323 C28.356,40.417 28.467,41.485 28.666,42.524 C26.521,41.912 24.935,39.954 24.935,37.612 Z M50.581,55.632 L50.581,56.015 L47.814,61.549 L43.089,61.549 L40.322,56.015 L40.322,55.632 C41.943,56.141 43.665,56.419 45.452,56.419 C47.238,56.419 48.96,56.141 50.581,55.632 Z M50.852,65.33 L50.632,63.562 L53.262,58.298 L55.709,58.675 L55.709,66.302 L50.852,65.33 Z M35.193,58.675 L37.641,58.298 L40.274,63.562 L40.052,65.33 L35.193,66.302 L35.193,58.675 Z M59.129,59.201 L66.538,60.341 C70.704,60.984 74.265,63.811 75.829,67.726 L78.829,75.227 L69.081,75.227 L67.646,68.053 L64.292,68.725 L65.591,75.227 L52.089,75.227 L51.298,68.907 L59.129,70.474 L59.129,59.201 Z M15.074,67.724 C16.639,63.811 20.198,60.981 24.366,60.341 L31.774,59.201 L31.774,70.474 L39.604,68.907 L38.814,75.227 L25.31,75.227 L26.613,68.723 L23.26,68.053 L21.823,75.227 L12.075,75.227 L15.074,67.724 Z M43.542,64.968 L47.362,64.968 L48.646,75.227 L42.26,75.227 L43.542,64.968 Z M4.419,80.354 L4.419,78.645 L103.58,78.645 L103.58,80.354 C103.58,83.184 101.278,85.484 98.453,85.484 L9.549,85.484 C6.721,85.484 4.419,83.184 4.419,80.354 Z M48.87,102.582 L59.129,102.582 L59.129,88.904 L48.87,88.904 L48.87,102.582 Z M62.548,96.147 L83.064,100.544 L83.064,102.582 L62.548,102.582 L62.548,96.147 Z M24.935,100.544 L45.452,96.149 L45.452,102.582 L24.935,102.582 L24.935,100.544 Z"/>
    <path id="5m-04-c" d="M0.999,2 C0.999,3.106 1.896,4 3,4 C4.104,4 5,3.106 5,2 C5,0.896 4.104,0 3,0 C1.896,0 0.999,0.896 0.999,2 Z"/>
    <path id="5m-04-e" d="M0.999,2 C0.999,3.106 1.895,4 2.999,4 C4.105,4 5,3.106 5,2 C5,0.896 4.105,0 2.999,0 C1.895,0 0.999,0.896 0.999,2 Z"/>
    <path id="5m-04-g" d="M18.499,0.001 C18.499,3.308 15.359,6 11.499,6 C7.639,6 4.499,3.308 4.499,0.001 L0.999,0.001 C0.999,4.963 5.71,9.001 11.499,9.001 C17.291,9.001 21.999,4.963 21.999,0.001 L18.499,0.001 Z"/>
  </defs>
  <g fill="none" fill-rule="evenodd" transform="translate(17 17)">
    <mask id="5m-04-b" fill="#fff">
      <use xlink:href="#5m-04-a"/>
    </mask>
    <polygon fill="#000" points="-4 111 112 111 112 -5 -4 -5" mask="url(#5m-04-b)"/>
    <g transform="translate(51 31)">
      <mask id="5m-04-d" fill="#fff">
        <use xlink:href="#5m-04-c"/>
      </mask>
      <polygon fill="#000" points="-4 9 10 9 10 -5 -4 -5" mask="url(#5m-04-d)"/>
    </g>
    <g transform="translate(35 31)">
      <mask id="5m-04-f" fill="#fff">
        <use xlink:href="#5m-04-e"/>
      </mask>
      <polygon fill="#000" points="-4 9 10 9 10 -5 -4 -5" mask="url(#5m-04-f)"/>
    </g>
    <g transform="translate(35 39)">
      <mask id="5m-04-h" fill="#fff">
        <use xlink:href="#5m-04-g"/>
      </mask>
      <polygon fill="#000" points="-4 14 27 14 27 -5 -4 -5" mask="url(#5m-04-h)"/>
    </g>
  </g>
</svg>
