<svg xmlns="http://www.w3.org/2000/svg" xmlns:xlink="http://www.w3.org/1999/xlink" width="140" height="140" viewBox="0 0 140 140">
  <defs>
    <path id="5m-01-a" d="M1.405,0.001 C0.63,0.001 0,0.671 0,1.501 C0,2.328 0.63,3 1.405,3 L1.594,3 C2.371,3 2.999,2.328 2.999,1.501 C2.999,0.671 2.371,0.001 1.594,0.001 L1.405,0.001 Z"/>
    <path id="5m-01-c" d="M1.405,0.001 C0.63,0.001 0,0.671 0,1.501 C0,2.328 0.63,3 1.405,3 L1.594,3 C2.371,3 2.999,2.328 2.999,1.501 C2.999,0.671 2.371,0.001 1.594,0.001 L1.405,0.001 Z"/>
    <path id="5m-01-e" d="M1.405,0.001 C0.63,0.001 0,0.671 0,1.501 C0,2.328 0.63,3 1.405,3 L1.594,3 C2.371,3 2.999,2.328 2.999,1.501 C2.999,0.671 2.371,0.001 1.594,0.001 L1.405,0.001 Z"/>
  </defs>
  <g fill="none" fill-rule="evenodd" transform="translate(18 23)">
    <g transform="translate(87 7)">
      <mask id="5m-01-b" fill="#fff">
        <use xlink:href="#5m-01-a"/>
      </mask>
      <polygon fill="#000" points="-5 8 8 8 8 -5 -5 -5" mask="url(#5m-01-b)"/>
    </g>
    <g transform="translate(94 7)">
      <mask id="5m-01-d" fill="#fff">
        <use xlink:href="#5m-01-c"/>
      </mask>
      <polygon fill="#000" points="-5 8 8 8 8 -5 -5 -5" mask="url(#5m-01-d)"/>
    </g>
    <g transform="translate(80 7)">
      <mask id="5m-01-f" fill="#fff">
        <use xlink:href="#5m-01-e"/>
      </mask>
      <polygon fill="#000" points="-5 8 8 8 8 -5 -5 -5" mask="url(#5m-01-f)"/>
    </g>
    <path fill="#000" d="M4.369,90.612 L99.631,90.612 L99.631,17.244 L4.369,17.244 L4.369,90.612 Z M4.369,13.48 L99.631,13.48 L99.631,4.388 L4.369,4.388 L4.369,13.48 Z M101.503,0.625 L2.498,0.625 C1.465,0.625 0.625,1.468 0.625,2.506 L0.625,92.494 C0.625,93.531 1.465,94.375 2.498,94.375 L101.503,94.375 C102.535,94.375 103.375,93.531 103.375,92.494 L103.375,2.506 C103.375,1.468 102.535,0.625 101.503,0.625 Z"/>
    <path fill="#000" d="M58.6521,78.5005 C58.6521,80.1705 57.3531,81.5295 55.7561,81.5295 L46.2431,81.5295 C44.6471,81.5295 43.3481,80.1705 43.3481,78.5005 C43.3481,76.8295 44.6471,75.4705 46.2431,75.4705 L55.7561,75.4705 C57.3531,75.4705 58.6521,76.8295 58.6521,78.5005 M55.7561,71.6255 L46.2431,71.6255 C42.5931,71.6255 39.6251,74.7095 39.6251,78.5005 C39.6251,82.2915 42.5931,85.3755 46.2431,85.3755 L55.7561,85.3755 C59.4061,85.3755 62.3751,82.2915 62.3751,78.5005 C62.3751,74.7095 59.4061,71.6255 55.7561,71.6255"/>
    <path fill="#000" d="M63.8552 50.0337C63.3742 50.5157 63.1922 51.1857 63.3682 51.8277L66.8062 64.3697 29.3662 64.3697 29.3662 36.3507 76.6792 36.3507 76.6792 52.5277 65.6652 49.5397C65.0152 49.3627 64.3392 49.5487 63.8552 50.0337zM81.3532 64.8057C81.3532 65.3047 81.5472 65.7717 81.9012 66.1237L91.8582 76.0287 89.9922 77.8847 80.0332 67.9767C79.6742 67.6207 79.1932 67.4417 78.7102 67.4417 78.2292 67.4417 77.7472 67.6207 77.3882 67.9767L72.8982 72.4437 67.8392 53.9927 86.3872 59.0247 81.9012 63.4877C81.5472 63.8397 81.3532 64.3077 81.3532 64.8057zM85.8702 64.8047L91.3142 59.3887C91.7842 58.9227 91.9602 58.2527 91.7882 57.5987 91.6142 56.9437 91.1262 56.4477 90.4842 56.2727L80.4202 53.5427 80.4202 34.4877C80.4202 33.4607 79.5812 32.6257 78.5492 32.6257L27.4962 32.6257C26.4642 32.6257 25.6252 33.4607 25.6252 34.4877L25.6252 66.2327C25.6252 67.2607 26.4642 68.0957 27.4962 68.0957L67.8282 68.0957 70.1372 76.5187C70.3112 77.1557 70.8062 77.6397 71.4602 77.8147 72.1162 77.9887 72.7922 77.8157 73.2642 77.3457L78.7102 71.9287 88.6692 81.8357C89.0282 82.1917 89.5092 82.3707 89.9922 82.3707 90.4732 82.3707 90.9562 82.1917 91.3142 81.8357L95.8272 77.3457C96.1802 76.9947 96.3762 76.5257 96.3762 76.0277 96.3752 75.5297 96.1802 75.0617 95.8272 74.7117L85.8702 64.8047zM27.4997 30.3755L56.4997 30.3755C57.5337 30.3755 58.3747 29.5345 58.3747 28.5005 58.3747 27.4665 57.5337 26.6255 56.4997 26.6255L27.4997 26.6255C26.4657 26.6255 25.6247 27.4665 25.6247 28.5005 25.6247 29.5345 26.4657 30.3755 27.4997 30.3755M62.4997 30.3755L78.4997 30.3755C79.5337 30.3755 80.3747 29.5345 80.3747 28.5005 80.3747 27.4665 79.5337 26.6255 78.4997 26.6255L62.4997 26.6255C61.4657 26.6255 60.6247 27.4665 60.6247 28.5005 60.6247 29.5345 61.4657 30.3755 62.4997 30.3755"/>
  </g>
</svg>
