<?xml version="1.0" encoding="UTF-8"?>
<svg width="113px" height="108px" viewBox="0 0 113 108" version="1.1" xmlns="http://www.w3.org/2000/svg" xmlns:xlink="http://www.w3.org/1999/xlink">
    <defs>
        <polygon id="path-1" points="0 0 112.9998 0 112.9998 96.0003 0 96.0003"/>
        <polygon id="path-3" points="0.000124905592 -1.26690848e-05 17.0002763 -1.26690848e-05 17.0002763 21 0.000124905592 21"/>
    </defs>
    <g id="Symbols" stroke="none" stroke-width="1" fill="none" fill-rule="evenodd">
        <g id="komponenten/section-infomaterial" transform="translate(-855.000000, 0.000000)">
            <g id="illus/td-fly-mail" transform="translate(855.000000, 0.000000)">
                <g id="Group-15">
                    <polygon id="Fill-1" fill="#FFFFFF" points="109.8767 3.9399 3.7657 47.9269 56.5737 70.0499 56.5737 93.5739 73.9607 77.3349 109.8767 92.3799"/>
                    <g id="Group-14">
                        <g id="Group-4">
                            <mask id="mask-2" fill="white">
                                <use xlink:href="#path-1"/>
                            </mask>
                            <g id="Clip-3"/>
                            <path d="M111.9998,0.3413 C111.3768,-0.0457 110.5898,-0.1077 109.9068,0.1763 L1.3208,45.3823 C0.5188,45.7163 -0.0002,46.4703 -0.0002,47.3023 C-0.0002,48.1343 0.5188,48.8883 1.3208,49.2223 L54.2928,71.2753 L54.2928,93.9043 C54.2928,94.7513 54.8308,95.5153 55.6538,95.8403 C55.9278,95.9473 56.2148,96.0003 56.4998,96.0003 C57.0728,96.0003 57.6378,95.7873 58.0598,95.3873 L74.5818,79.7223 L109.9068,94.4283 C110.1898,94.5463 110.4918,94.6043 110.7928,94.6043 C111.2158,94.6043 111.6358,94.4883 111.9998,94.2633 C112.6238,93.8753 112.9998,93.2163 112.9998,92.5083 L112.9998,2.0963 C112.9998,1.3883 112.6238,0.7283 111.9998,0.3413 Z M55.1528,67.0563 L49.1958,64.5753 L70.0748,38.9133 C70.8198,37.9973 70.6428,36.6813 69.6778,35.9733 C68.7138,35.2653 67.3278,35.4343 66.5818,36.3503 L45.0288,62.8413 L7.7038,47.3023 L103.7598,7.3133 L55.1528,67.0563 Z M58.7068,88.8493 L58.7068,73.1123 L70.2398,77.9143 L58.7068,88.8493 Z M108.5858,89.3013 L59.3198,68.7903 L108.5858,8.2373 L108.5858,89.3013 Z" id="Fill-2" fill="#000000" mask="url(#mask-2)"/>
                        </g>
                        <g id="Group-7" transform="translate(58.000000, 87.000000)">
                            <mask id="mask-4" fill="white">
                                <use xlink:href="#path-3"/>
                            </mask>
                            <g id="Clip-6"/>
                            <path d="M16.1873,0.4419 C15.2723,-0.2731 13.9583,-0.1021 13.2513,0.8219 L0.4363,17.5909 C-0.2697,18.5149 -0.1007,19.8439 0.8133,20.5579 C1.1943,20.8559 1.6443,21.0009 2.0903,21.0009 C2.7163,21.0009 3.3353,20.7169 3.7483,20.1779 L16.5633,3.4089 C17.2703,2.4849 17.1013,1.1559 16.1873,0.4419" id="Fill-5" fill="#000000" mask="url(#mask-4)"/>
                        </g>
                        <path d="M31.033,103.521 C29.944,102.679 28.38,102.878 27.537,103.966 L27.521,103.987 C26.679,105.074 26.879,106.637 27.968,107.479 C28.421,107.83 28.958,108 29.49,108 C30.235,108 30.971,107.667 31.463,107.034 L31.478,107.013 C32.321,105.926 32.122,104.362 31.033,103.521" id="Fill-8" fill="#000000"/>
                        <path d="M47.1511,82.4184 C46.1961,81.7414 44.8241,81.9024 44.0861,82.7784 L31.4561,97.7714 C30.7181,98.6474 30.8941,99.9044 31.8491,100.5814 C32.2471,100.8634 32.7161,101.0004 33.1831,101.0004 C33.8371,101.0004 34.4831,100.7314 34.9141,100.2214 L47.5441,85.2294 C48.2821,84.3544 48.1061,83.0954 47.1511,82.4184" id="Fill-10" fill="#000000"/>
                        <path d="M75.0359,30.519 C73.9509,29.68 72.3899,29.879 71.5509,30.962 L71.5189,31.001 C70.6799,32.084 70.8789,33.643 71.9639,34.481 C72.4169,34.831 72.9519,35 73.4829,35 C74.2249,35 74.9599,34.669 75.4499,34.038 L75.4799,33.998 C76.3199,32.915 76.1209,31.358 75.0359,30.519" id="Fill-12" fill="#000000"/>
                    </g>
                </g>
            </g>
        </g>
    </g>
</svg>
