<svg xmlns="http://www.w3.org/2000/svg" xmlns:xlink="http://www.w3.org/1999/xlink" width="1024" zoomAndPan="magnify" viewBox="0 0 768 767.999994" height="1024" preserveAspectRatio="xMidYMid meet" version="1.0"><path fill="#273376" d="M 693.566406 156.890625 C 648.707031 95.804688 586.226562 48.484375 513.605469 22.425781 L 513.605469 246.871094 L 693.566406 156.890625 " fill-opacity="1" fill-rule="nonzero"/><path fill="#273376" d="M 254.824219 246.875 L 254.824219 22.207031 C 182.023438 48.191406 119.371094 95.519531 74.40625 156.664062 L 254.820312 246.871094 L 254.824219 246.875 " fill-opacity="1" fill-rule="nonzero"/><path fill="#273376" d="M 254.820312 520.929688 L 74.40625 611.140625 C 119.371094 672.289062 182.023438 719.613281 254.824219 745.597656 L 254.824219 520.929688 L 254.820312 520.929688 " fill-opacity="1" fill-rule="nonzero"/><path fill="#273376" d="M 513.605469 745.382812 C 586.226562 719.316406 648.707031 671.996094 693.566406 610.910156 L 513.605469 520.929688 L 513.605469 745.382812 " fill-opacity="1" fill-rule="nonzero"/><path fill="#ffffff" d="M 254.824219 246.875 L 254.820312 246.871094 L 74.40625 156.664062 C 61.605469 174.070312 50.238281 192.59375 40.476562 212.070312 L 123.566406 253.574219 L 38.640625 253.574219 L 25.140625 246.882812 C 24.175781 249.414062 23.226562 251.957031 22.316406 254.511719 L 254.824219 254.511719 L 254.824219 246.875 " fill-opacity="1" fill-rule="nonzero"/><path fill="#ffffff" d="M 513.605469 254.511719 L 556.203125 254.511719 L 708.3125 178.460938 C 703.640625 171.09375 698.71875 163.90625 693.566406 156.890625 L 513.605469 246.871094 L 513.605469 254.511719 " fill-opacity="1" fill-rule="nonzero"/><path fill="#ffffff" d="M 729.171875 513.824219 L 742.792969 520.578125 C 743.710938 518.15625 744.617188 515.734375 745.492188 513.292969 L 513.605469 513.292969 L 513.605469 520.929688 L 693.566406 610.910156 C 706.367188 593.476562 717.734375 574.917969 727.496094 555.410156 L 644.238281 513.824219 L 729.171875 513.824219 " fill-opacity="1" fill-rule="nonzero"/><path fill="#ffffff" d="M 123.542969 513.292969 L 22.316406 513.292969 C 27.441406 527.617188 33.402344 541.554688 40.128906 555.035156 L 123.527344 513.300781 L 123.542969 513.292969 " fill-opacity="1" fill-rule="nonzero"/><path fill="#ffffff" d="M 254.824219 520.929688 L 254.824219 513.292969 L 210.789062 513.292969 L 59.296875 589.039062 C 64.078125 596.585938 69.121094 603.957031 74.40625 611.140625 L 254.820312 520.929688 L 254.824219 520.929688 " fill-opacity="1" fill-rule="nonzero"/><path fill="#ffffff" d="M 745.492188 254.511719 C 740.320312 240.066406 734.308594 226.03125 727.519531 212.445312 L 643.46875 254.511719 L 745.492188 254.511719 " fill-opacity="1" fill-rule="nonzero"/><path fill="#ffffff" d="M 513.605469 513.292969 L 745.492188 513.292969 C 751.484375 496.539062 756.367188 479.265625 760.007812 461.535156 L 461.847656 461.535156 L 461.847656 759.9375 C 479.578125 756.28125 496.859375 751.386719 513.605469 745.382812 L 513.605469 513.292969 " fill-opacity="1" fill-rule="nonzero"/><path fill="#ffffff" d="M 461.847656 306.269531 L 760.007812 306.269531 C 756.367188 288.535156 751.484375 271.257812 745.492188 254.511719 L 643.46875 254.511719 L 643.453125 254.519531 L 556.195312 254.519531 L 556.203125 254.511719 L 513.605469 254.511719 L 513.605469 22.425781 C 496.859375 16.414062 479.578125 11.523438 461.847656 7.863281 L 461.847656 306.269531 " fill-opacity="1" fill-rule="nonzero"/><path fill="#ffffff" d="M 306.582031 461.535156 L 7.800781 461.535156 C 11.441406 479.265625 16.324219 496.539062 22.316406 513.292969 L 123.542969 513.292969 L 124.359375 512.886719 L 211.605469 512.886719 L 210.789062 513.292969 L 254.824219 513.292969 L 254.824219 745.597656 C 271.570312 751.578125 288.847656 756.449219 306.582031 760.074219 L 306.582031 461.535156 " fill-opacity="1" fill-rule="nonzero"/><path fill="#ffffff" d="M 306.582031 306.269531 L 306.582031 7.730469 C 288.847656 11.359375 271.570312 16.226562 254.824219 22.207031 L 254.824219 254.511719 L 22.316406 254.511719 C 16.324219 271.257812 11.441406 288.535156 7.800781 306.269531 L 306.582031 306.269531 " fill-opacity="1" fill-rule="nonzero"/><path fill="#d21d2c" d="M 461.847656 461.535156 L 760.007812 461.535156 C 765.15625 436.464844 767.859375 410.5 767.859375 383.902344 C 767.859375 357.308594 765.15625 331.34375 760.007812 306.269531 L 461.847656 306.269531 L 461.847656 7.863281 C 436.679688 2.675781 410.605469 -0.0585938 383.902344 -0.0585938 C 357.414062 -0.0585938 331.558594 2.625 306.582031 7.730469 L 306.582031 306.269531 L 7.800781 306.269531 C 2.648438 331.34375 -0.0585938 357.308594 -0.0585938 383.902344 C -0.0585938 410.5 2.648438 436.464844 7.800781 461.535156 L 306.582031 461.535156 L 306.582031 760.074219 C 331.558594 765.183594 357.414062 767.859375 383.902344 767.859375 C 410.605469 767.859375 436.679688 765.132812 461.847656 759.9375 L 461.847656 461.535156 " fill-opacity="1" fill-rule="nonzero"/><path fill="#d21d2c" d="M 123.566406 253.574219 L 40.476562 212.070312 C 34.808594 223.367188 29.691406 234.980469 25.140625 246.882812 L 38.640625 253.574219 L 123.566406 253.574219 " fill-opacity="1" fill-rule="nonzero"/><path fill="#d21d2c" d="M 556.195312 254.519531 L 643.453125 254.519531 L 643.46875 254.511719 L 727.519531 212.445312 C 721.679688 200.765625 715.273438 189.425781 708.3125 178.460938 L 556.203125 254.511719 L 556.195312 254.519531 " fill-opacity="1" fill-rule="nonzero"/><path fill="#d21d2c" d="M 729.171875 513.824219 L 644.238281 513.824219 L 727.496094 555.410156 C 733.140625 544.109375 738.253906 532.488281 742.792969 520.578125 L 729.171875 513.824219 " fill-opacity="1" fill-rule="nonzero"/><path fill="#d21d2c" d="M 210.789062 513.292969 L 211.605469 512.886719 L 124.359375 512.886719 L 123.527344 513.300781 L 40.128906 555.035156 C 45.953125 566.722656 52.355469 578.066406 59.296875 589.039062 L 210.789062 513.292969 " fill-opacity="1" fill-rule="nonzero"/></svg>