<svg xmlns="http://www.w3.org/2000/svg" xmlns:xlink="http://www.w3.org/1999/xlink" width="1024" zoomAndPan="magnify" viewBox="0 0 768 767.999994" height="1024" preserveAspectRatio="xMidYMid meet" version="1.0"><path fill="#ededed" d="M 512.035156 21.847656 L 512.035156 746.152344 C 472.015625 760.332031 428.953125 768 384 768 C 339.046875 768 295.984375 760.332031 255.964844 746.152344 L 255.964844 21.847656 C 296.085938 7.667969 339.152344 0 384 0 C 428.847656 0 472.015625 7.667969 512.035156 21.847656 Z M 512.035156 21.847656 " fill-opacity="1" fill-rule="nonzero"/><path fill="#f4263f" d="M 768 384 C 768 410.257812 765.375 435.992188 760.332031 460.777344 C 756.761719 478.320312 752.035156 495.441406 746.152344 511.929688 C 707.605469 621.058594 621.164062 707.5 512.035156 746.046875 L 512.035156 21.847656 C 621.164062 60.394531 707.605469 146.941406 746.152344 255.964844 C 752.035156 272.558594 756.761719 289.679688 760.332031 307.117188 C 765.375 332.007812 768 357.742188 768 384 Z M 768 384 " fill-opacity="1" fill-rule="nonzero"/><path fill="#001aa0" d="M 255.964844 21.847656 L 255.964844 746.152344 C 146.941406 707.605469 60.394531 621.164062 21.847656 512.035156 C 15.964844 495.441406 11.238281 478.320312 7.667969 460.882812 C 2.625 435.992188 0 410.363281 0 384 C 0 357.742188 2.625 332.007812 7.667969 307.222656 C 11.238281 289.679688 15.964844 272.558594 21.847656 256.070312 C 60.394531 146.941406 146.941406 60.394531 255.964844 21.847656 Z M 255.964844 21.847656 " fill-opacity="1" fill-rule="nonzero"/></svg>