<svg xmlns="http://www.w3.org/2000/svg" xmlns:xlink="http://www.w3.org/1999/xlink" width="1024" zoomAndPan="magnify" viewBox="0 0 768 767.999994" height="1024" preserveAspectRatio="xMidYMid meet" version="1.0"><path fill="#ed1d24" d="M 383.910156 767.871094 C 388.265625 767.871094 392.59375 767.773438 396.917969 767.632812 L 370.890625 767.632812 C 375.214844 767.773438 379.546875 767.871094 383.910156 767.871094 " fill-opacity="1" fill-rule="nonzero"/><path fill="#ed1d24" d="M 25.617188 245.59375 C 9.039062 288.507812 -0.078125 335.140625 -0.078125 383.910156 C -0.078125 432.582031 9.007812 479.132812 25.527344 521.992188 L 742.265625 521.992188 C 758.785156 479.132812 767.871094 432.582031 767.871094 383.910156 C 767.871094 335.140625 758.761719 288.507812 742.1875 245.59375 L 25.617188 245.59375 " fill-opacity="1" fill-rule="nonzero"/><path fill="#100f0d" d="M 383.910156 -0.078125 C 220.605469 -0.078125 81.132812 101.871094 25.617188 245.59375 L 742.1875 245.59375 C 686.660156 101.871094 547.191406 -0.078125 383.910156 -0.078125 " fill-opacity="1" fill-rule="nonzero"/><path fill="#f7ed08" d="M 370.890625 767.632812 L 396.917969 767.632812 C 554.65625 762.367188 688.28125 661.972656 742.265625 521.992188 L 25.527344 521.992188 C 79.515625 661.972656 213.144531 762.367188 370.890625 767.632812 " fill-opacity="1" fill-rule="nonzero"/></svg>