<svg xmlns="http://www.w3.org/2000/svg" xmlns:xlink="http://www.w3.org/1999/xlink" width="1024" zoomAndPan="magnify" viewBox="0 0 768 767.999994" height="1024" preserveAspectRatio="xMidYMid meet" version="1.0"><defs><clipPath id="id1"><path d="M 234 0 L 554 0 L 554 767.964844 L 234 767.964844 Z M 234 0 " clip-rule="nonzero"/></clipPath><clipPath id="id2"><path d="M 533.15625 30 L 767.964844 30 L 767.964844 738 L 533.15625 738 Z M 533.15625 30 " clip-rule="nonzero"/></clipPath></defs><path fill="#46bc50" d="M 178.761719 59.273438 C 155.039062 74.332031 132.8125 92.109375 112.460938 112.457031 C 39.9375 184.984375 0 281.414062 0 383.984375 C 0 486.550781 39.9375 582.972656 112.460938 655.5 C 132.8125 675.851562 155.039062 693.625 178.761719 708.679688 C 196.496094 719.941406 215.082031 729.625 234.320312 737.761719 L 234.320312 30.195312 C 215.082031 38.339844 196.496094 48.023438 178.761719 59.273438 " fill-opacity="1" fill-rule="nonzero"/><g clip-path="url(#id1)"><path fill="#ffffff" d="M 383.984375 -0.00390625 C 331.707031 -0.00390625 281.050781 10.425781 234.320312 30.195312 L 234.320312 737.761719 C 281.050781 757.542969 331.710938 767.964844 383.984375 767.964844 C 443.867188 767.964844 501.632812 754.296875 553.800781 728.527344 L 553.800781 39.441406 C 501.632812 13.667969 443.867188 -0.00390625 383.984375 -0.00390625 " fill-opacity="1" fill-rule="nonzero"/></g><g clip-path="url(#id2)"><path fill="#ee2332" d="M 533.617188 737.761719 C 543.175781 733.039062 572.753906 718.71875 581.910156 713.1875 C 608.371094 697.207031 633.082031 677.914062 655.5 655.5 C 728.023438 582.976562 767.964844 486.550781 767.964844 383.984375 C 767.964844 281.417969 728.023438 184.996094 655.5 112.460938 C 633.078125 90.042969 608.371094 70.75 581.910156 54.773438 C 572.753906 49.242188 543.175781 34.921875 533.617188 30.195312 L 533.617188 737.761719 " fill-opacity="1" fill-rule="nonzero"/></g></svg>